<svg xmlns="http://www.w3.org/2000/svg" xmlns:xlink="http://www.w3.org/1999/xlink" width="30" height="30">
  <defs>
    <path id="a" d="M9 15l-4-1v-2l3-2-2-4c0-3 1-4 3-4s3 1 3 4l-2 4 3 2v2l-4 1z"/>
    <mask id="b" width="13" height="17" x="-2" y="-2">
      <path fill="#fff" d="M3 0h12v17H3z"/>
    </mask>
  </defs>
  <g fill="none" fill-rule="evenodd">
    <path fill="#FFF" d="M0 0h30v30H0z"/>
    <path stroke="#7289DA" stroke-width="2" d="M20 21l-5-1v-2l4-2c-2-1-2-2-2-4 0-3 1-4 3-4 1 0 3 1 3 4 0 2-1 3-3 4s4 1 4 2v2l-4 1zm-10 0l-4-1v-2l3-2h1c-2-1-3-2-3-4 0-3 2-4 3-4 2 0 3 1 3 4 0 2 0 3-2 4s3 1 4 2v2l-5 1z"/>
    <g transform="translate(6 8)">
      <use fill="#2f3136" xlink:href="#a"/>
      <use stroke="#FFF" stroke-width="4" mask="url(#b)" xlink:href="#a"/>
    </g>
    <path fill="#FFF" stroke="#7289DA" stroke-width="2" d="M15 23l-4-1v-2l3-2-2-4c0-3 1-4 3-4s3 1 3 4l-2 4 3 2v2l-4 1z"/>
  </g>
</svg>
