<svg xmlns="http://www.w3.org/2000/svg" viewBox="0 0 158.75 148.83">
  <path fill="#2196f3" d="M138.64 0H20.1C9.05 0 0 9.22 0 20.48v83.26c0 11.27 9.05 20.48 20.11 20.48h48.12l23.15 23.59c.98 1 2.45 1.3 3.73.75a3.49 3.49 0 0 0 2.11-3.21v-21.13h41.42c11.06 0 20.11-9.21 20.11-20.48V20.48C158.75 9.22 149.7 0 138.64 0z"/>
  <g fill="#fff">
    <path d="M92.34 101.8V22.42h-22.6v79.38zM61.8 43.84c-5.82 0-8.8.36-12.61 1.78-8.92 3.1-14.16 13.22-14.16 27.14S40.26 96.67 49.19 100c3.92 1.43 6.78 1.79 12.62 1.79zM100.28 80.26h23.44l-23.44-57.84z"/>
  </g>
</svg>
