<svg xmlns="http://www.w3.org/2000/svg" viewBox="0 0 512 512"><path d="M496 294c9-1 16-8 16-17v-42c0-9-7-16-16-17l-55-4c-3-1-6-3-8-6l-18-43c-1-4 0-7 2-10l36-42c5-7 5-17-1-23l-30-30c-6-6-16-6-23-1l-42 36c-3 2-6 3-10 2l-43-18c-3-2-5-5-6-8l-4-55c-1-9-8-16-17-16h-42c-9 0-16 7-17 16l-4 55c-1 3-3 6-6 8l-43 18c-4 1-7 0-10-2l-42-36c-7-5-17-5-23 1L60 90c-6 6-6 16-1 23l36 42c2 3 3 6 2 10l-18 43c-2 3-5 5-8 6l-55 4c-9 1-16 8-16 17v42c0 9 7 16 16 17l55 4c3 1 6 3 8 6l18 43c1 4 0 7-2 10l-36 42c-5 7-5 17 1 23l30 30c6 6 16 6 23 1l42-36c3-2 6-3 10-2l43 18c3 2 5 5 6 8l4 55c1 9 8 16 17 16h42c9 0 16-7 17-16l4-55c1-3 3-6 6-8l43-18c4-1 7 0 10 2l42 36c7 5 17 5 23-1l30-30c6-6 6-16 1-23l-36-42c-2-3-3-6-2-10l18-43c2-3 5-5 8-6l55-4zm-240 49a86 86 0 0 1-87-87 86 86 0 0 1 87-87 86 86 0 0 1 87 87 86 86 0 0 1-87 87z"/></svg>